<?xml version="1.0" encoding="utf-8" standalone="no"?>
<!DOCTYPE svg PUBLIC "-//W3C//DTD SVG 1.1//EN"
  "http://www.w3.org/Graphics/SVG/1.1/DTD/svg11.dtd">
<svg xmlns:xlink="http://www.w3.org/1999/xlink" width="454.79952pt" height="253.19952pt" viewBox="0 0 454.79952 253.19952" xmlns="http://www.w3.org/2000/svg" version="1.1">
 <metadata>
  <rdf:RDF xmlns:dc="http://purl.org/dc/elements/1.1/" xmlns:cc="http://creativecommons.org/ns#" xmlns:rdf="http://www.w3.org/1999/02/22-rdf-syntax-ns#">
   <cc:Work>
    <dc:type rdf:resource="http://purl.org/dc/dcmitype/StillImage"/>
    <dc:date>2026-08-27T01:39:29.472972</dc:date>
    <dc:format>image/svg+xml</dc:format>
    <dc:creator>
     <cc:Agent>
      <dc:title>Matplotlib v3.11.0, https://matplotlib.org/</dc:title>
     </cc:Agent>
    </dc:creator>
   </cc:Work>
  </rdf:RDF>
 </metadata>
 <defs>
  <style type="text/css">*{stroke-linejoin: round; stroke-linecap: butt}</style>
 </defs>
 <g id="figure_1">
  <g id="patch_1">
   <path d="M 0 253.19952 
L 454.79952 253.19952 
L 454.79952 0 
L 0 0 
z
" style="fill: #ffffff"/>
  </g>
  <g id="axes_1">
   <g id="patch_2">
    <path d="M 46.391758 219.534325 
L 420.407762 219.534325 
L 420.407762 20.14375 
L 46.391758 20.14375 
z
" style="fill: #ffffff"/>
   </g>
   <g id="matplotlib.axis_1">
    <g id="xtick_1">
     <g id="line2d_1">
      <path d="M 81.441833 219.534325 
L 81.441833 20.14375 
" clip-path="url(#pb4106f1b7c)" style="fill: none; stroke: #b0b0b0; stroke-opacity: 0.25; stroke-width: 0.8; stroke-linecap: square"/>
     </g>
     <g id="line2d_2">
      <defs>
       <path id="m9b425af430" d="M 0 0 
L 0 3.5 
" style="stroke: #000000; stroke-width: 0.8"/>
      </defs>
      <g>
       <use xlink:href="#m9b425af430" x="81.441833" y="219.534325" style="stroke: #000000; stroke-width: 0.8"/>
      </g>
     </g>
     <g id="text_1">
      <text style="font-size: 8px; font-family: 'Times New Roman', 'DejaVu Serif', 'STIXGeneral', serif; text-anchor: middle" x="81.441833" y="232.0812" transform="rotate(-0 81.441833 232.0812)">40</text>
     </g>
    </g>
    <g id="xtick_2">
     <g id="line2d_3">
      <path d="M 154.644529 219.534325 
L 154.644529 20.14375 
" clip-path="url(#pb4106f1b7c)" style="fill: none; stroke: #b0b0b0; stroke-opacity: 0.25; stroke-width: 0.8; stroke-linecap: square"/>
     </g>
     <g id="line2d_4">
      <g>
       <use xlink:href="#m9b425af430" x="154.644529" y="219.534325" style="stroke: #000000; stroke-width: 0.8"/>
      </g>
     </g>
     <g id="text_2">
      <text style="font-size: 8px; font-family: 'Times New Roman', 'DejaVu Serif', 'STIXGeneral', serif; text-anchor: middle" x="154.644529" y="232.0812" transform="rotate(-0 154.644529 232.0812)">50</text>
     </g>
    </g>
    <g id="xtick_3">
     <g id="line2d_5">
      <path d="M 227.847226 219.534325 
L 227.847226 20.14375 
" clip-path="url(#pb4106f1b7c)" style="fill: none; stroke: #b0b0b0; stroke-opacity: 0.25; stroke-width: 0.8; stroke-linecap: square"/>
     </g>
     <g id="line2d_6">
      <g>
       <use xlink:href="#m9b425af430" x="227.847226" y="219.534325" style="stroke: #000000; stroke-width: 0.8"/>
      </g>
     </g>
     <g id="text_3">
      <text style="font-size: 8px; font-family: 'Times New Roman', 'DejaVu Serif', 'STIXGeneral', serif; text-anchor: middle" x="227.847226" y="232.0812" transform="rotate(-0 227.847226 232.0812)">60</text>
     </g>
    </g>
    <g id="xtick_4">
     <g id="line2d_7">
      <path d="M 301.049922 219.534325 
L 301.049922 20.14375 
" clip-path="url(#pb4106f1b7c)" style="fill: none; stroke: #b0b0b0; stroke-opacity: 0.25; stroke-width: 0.8; stroke-linecap: square"/>
     </g>
     <g id="line2d_8">
      <g>
       <use xlink:href="#m9b425af430" x="301.049922" y="219.534325" style="stroke: #000000; stroke-width: 0.8"/>
      </g>
     </g>
     <g id="text_4">
      <text style="font-size: 8px; font-family: 'Times New Roman', 'DejaVu Serif', 'STIXGeneral', serif; text-anchor: middle" x="301.049922" y="232.0812" transform="rotate(-0 301.049922 232.0812)">70</text>
     </g>
    </g>
    <g id="xtick_5">
     <g id="line2d_9">
      <path d="M 374.252619 219.534325 
L 374.252619 20.14375 
" clip-path="url(#pb4106f1b7c)" style="fill: none; stroke: #b0b0b0; stroke-opacity: 0.25; stroke-width: 0.8; stroke-linecap: square"/>
     </g>
     <g id="line2d_10">
      <g>
       <use xlink:href="#m9b425af430" x="374.252619" y="219.534325" style="stroke: #000000; stroke-width: 0.8"/>
      </g>
     </g>
     <g id="text_5">
      <text style="font-size: 8px; font-family: 'Times New Roman', 'DejaVu Serif', 'STIXGeneral', serif; text-anchor: middle" x="374.252619" y="232.0812" transform="rotate(-0 374.252619 232.0812)">80</text>
     </g>
    </g>
    <g id="text_6">
     <text style="font-size: 9px; font-family: 'Times New Roman', 'DejaVu Serif', 'STIXGeneral', serif; text-anchor: middle" x="233.39976" y="244.057137" transform="rotate(-0 233.39976 244.057137)">Matrix time (s)</text>
    </g>
   </g>
   <g id="matplotlib.axis_2">
    <g id="ytick_1">
     <g id="line2d_11">
      <path d="M 46.391758 210.366622 
L 420.407762 210.366622 
" clip-path="url(#pb4106f1b7c)" style="fill: none; stroke: #b0b0b0; stroke-opacity: 0.25; stroke-width: 0.8; stroke-linecap: square"/>
     </g>
     <g id="line2d_12">
      <defs>
       <path id="m4925004a5d" d="M 0 0 
L -3.5 0 
" style="stroke: #000000; stroke-width: 0.8"/>
      </defs>
      <g>
       <use xlink:href="#m4925004a5d" x="46.391758" y="210.366622" style="stroke: #000000; stroke-width: 0.8"/>
      </g>
     </g>
     <g id="text_7">
      <text style="font-size: 8px; font-family: 'Times New Roman', 'DejaVu Serif', 'STIXGeneral', serif; text-anchor: end" x="39.391758" y="213.14006" transform="rotate(-0 39.391758 213.14006)">0</text>
     </g>
    </g>
    <g id="ytick_2">
     <g id="line2d_13">
      <path d="M 46.391758 187.310891 
L 420.407762 187.310891 
" clip-path="url(#pb4106f1b7c)" style="fill: none; stroke: #b0b0b0; stroke-opacity: 0.25; stroke-width: 0.8; stroke-linecap: square"/>
     </g>
     <g id="line2d_14">
      <g>
       <use xlink:href="#m4925004a5d" x="46.391758" y="187.310891" style="stroke: #000000; stroke-width: 0.8"/>
      </g>
     </g>
     <g id="text_8">
      <text style="font-size: 8px; font-family: 'Times New Roman', 'DejaVu Serif', 'STIXGeneral', serif; text-anchor: end" x="39.391758" y="190.084329" transform="rotate(-0 39.391758 190.084329)">2000</text>
     </g>
    </g>
    <g id="ytick_3">
     <g id="line2d_15">
      <path d="M 46.391758 164.25516 
L 420.407762 164.25516 
" clip-path="url(#pb4106f1b7c)" style="fill: none; stroke: #b0b0b0; stroke-opacity: 0.25; stroke-width: 0.8; stroke-linecap: square"/>
     </g>
     <g id="line2d_16">
      <g>
       <use xlink:href="#m4925004a5d" x="46.391758" y="164.25516" style="stroke: #000000; stroke-width: 0.8"/>
      </g>
     </g>
     <g id="text_9">
      <text style="font-size: 8px; font-family: 'Times New Roman', 'DejaVu Serif', 'STIXGeneral', serif; text-anchor: end" x="39.391758" y="167.028597" transform="rotate(-0 39.391758 167.028597)">4000</text>
     </g>
    </g>
    <g id="ytick_4">
     <g id="line2d_17">
      <path d="M 46.391758 141.199429 
L 420.407762 141.199429 
" clip-path="url(#pb4106f1b7c)" style="fill: none; stroke: #b0b0b0; stroke-opacity: 0.25; stroke-width: 0.8; stroke-linecap: square"/>
     </g>
     <g id="line2d_18">
      <g>
       <use xlink:href="#m4925004a5d" x="46.391758" y="141.199429" style="stroke: #000000; stroke-width: 0.8"/>
      </g>
     </g>
     <g id="text_10">
      <text style="font-size: 8px; font-family: 'Times New Roman', 'DejaVu Serif', 'STIXGeneral', serif; text-anchor: end" x="39.391758" y="143.972866" transform="rotate(-0 39.391758 143.972866)">6000</text>
     </g>
    </g>
    <g id="ytick_5">
     <g id="line2d_19">
      <path d="M 46.391758 118.143697 
L 420.407762 118.143697 
" clip-path="url(#pb4106f1b7c)" style="fill: none; stroke: #b0b0b0; stroke-opacity: 0.25; stroke-width: 0.8; stroke-linecap: square"/>
     </g>
     <g id="line2d_20">
      <g>
       <use xlink:href="#m4925004a5d" x="46.391758" y="118.143697" style="stroke: #000000; stroke-width: 0.8"/>
      </g>
     </g>
     <g id="text_11">
      <text style="font-size: 8px; font-family: 'Times New Roman', 'DejaVu Serif', 'STIXGeneral', serif; text-anchor: end" x="39.391758" y="120.917135" transform="rotate(-0 39.391758 120.917135)">8000</text>
     </g>
    </g>
    <g id="ytick_6">
     <g id="line2d_21">
      <path d="M 46.391758 95.087966 
L 420.407762 95.087966 
" clip-path="url(#pb4106f1b7c)" style="fill: none; stroke: #b0b0b0; stroke-opacity: 0.25; stroke-width: 0.8; stroke-linecap: square"/>
     </g>
     <g id="line2d_22">
      <g>
       <use xlink:href="#m4925004a5d" x="46.391758" y="95.087966" style="stroke: #000000; stroke-width: 0.8"/>
      </g>
     </g>
     <g id="text_12">
      <text style="font-size: 8px; font-family: 'Times New Roman', 'DejaVu Serif', 'STIXGeneral', serif; text-anchor: end" x="39.391758" y="97.861404" transform="rotate(-0 39.391758 97.861404)">10000</text>
     </g>
    </g>
    <g id="ytick_7">
     <g id="line2d_23">
      <path d="M 46.391758 72.032235 
L 420.407762 72.032235 
" clip-path="url(#pb4106f1b7c)" style="fill: none; stroke: #b0b0b0; stroke-opacity: 0.25; stroke-width: 0.8; stroke-linecap: square"/>
     </g>
     <g id="line2d_24">
      <g>
       <use xlink:href="#m4925004a5d" x="46.391758" y="72.032235" style="stroke: #000000; stroke-width: 0.8"/>
      </g>
     </g>
     <g id="text_13">
      <text style="font-size: 8px; font-family: 'Times New Roman', 'DejaVu Serif', 'STIXGeneral', serif; text-anchor: end" x="39.391758" y="74.805672" transform="rotate(-0 39.391758 74.805672)">12000</text>
     </g>
    </g>
    <g id="ytick_8">
     <g id="line2d_25">
      <path d="M 46.391758 48.976504 
L 420.407762 48.976504 
" clip-path="url(#pb4106f1b7c)" style="fill: none; stroke: #b0b0b0; stroke-opacity: 0.25; stroke-width: 0.8; stroke-linecap: square"/>
     </g>
     <g id="line2d_26">
      <g>
       <use xlink:href="#m4925004a5d" x="46.391758" y="48.976504" style="stroke: #000000; stroke-width: 0.8"/>
      </g>
     </g>
     <g id="text_14">
      <text style="font-size: 8px; font-family: 'Times New Roman', 'DejaVu Serif', 'STIXGeneral', serif; text-anchor: end" x="39.391758" y="51.749941" transform="rotate(-0 39.391758 51.749941)">14000</text>
     </g>
    </g>
    <g id="ytick_9">
     <g id="line2d_27">
      <path d="M 46.391758 25.920773 
L 420.407762 25.920773 
" clip-path="url(#pb4106f1b7c)" style="fill: none; stroke: #b0b0b0; stroke-opacity: 0.25; stroke-width: 0.8; stroke-linecap: square"/>
     </g>
     <g id="line2d_28">
      <g>
       <use xlink:href="#m4925004a5d" x="46.391758" y="25.920773" style="stroke: #000000; stroke-width: 0.8"/>
      </g>
     </g>
     <g id="text_15">
      <text style="font-size: 8px; font-family: 'Times New Roman', 'DejaVu Serif', 'STIXGeneral', serif; text-anchor: end" x="39.391758" y="28.69421" transform="rotate(-0 39.391758 28.69421)">16000</text>
     </g>
    </g>
    <g id="text_16">
     <text style="font-size: 9px; font-family: 'Times New Roman', 'DejaVu Serif', 'STIXGeneral', serif; text-anchor: middle" x="13.449375" y="119.839037" transform="rotate(-90 13.449375 119.839037)">Filtered raw delta</text>
    </g>
   </g>
   <g id="line2d_29">
    <path d="M 63.392485 209.913689 
L 73.769473 209.880221 
L 74.117676 209.875758 
L 78.781529 209.876502 
L 82.046414 209.842662 
L 85.778829 209.723665 
L 97.076164 208.9896 
L 97.099414 209.011168 
L 104.441088 209.686478 
L 107.70677 210.052395 
L 112.372512 209.989549 
L 113.425218 209.877246 
L 114.705767 209.650779 
L 115.69262 209.486786 
L 117.986537 209.031621 
L 118.015569 208.87395 
L 119.370785 208.289747 
L 120.328181 208.065512 
L 120.353107 207.84016 
L 121.702232 206.721957 
L 122.609572 206.322944 
L 122.651598 205.919841 
L 124.034551 204.708671 
L 125.035656 204.281397 
L 125.072733 203.851147 
L 125.900246 203.004035 
L 126.367433 202.580479 
L 127.331622 202.138329 
L 127.355794 201.61065 
L 128.698624 199.797801 
L 129.710102 199.179015 
L 129.737041 198.560972 
L 131.031052 196.300767 
L 132.061329 195.515013 
L 132.085471 194.738927 
L 132.895906 192.498802 
L 133.362368 191.324448 
L 134.340619 190.143771 
L 134.367712 188.897274 
L 135.227287 186.339575 
L 135.693881 185.062213 
L 136.756301 183.735021 
L 136.78168 182.41192 
L 137.092243 181.050888 
L 138.024626 178.311719 
L 139.014011 176.928003 
L 139.03983 175.496316 
L 140.356915 170.081194 
L 141.345656 168.155297 
L 141.369689 165.876498 
L 142.221819 161.456863 
L 142.688406 159.146828 
L 143.643372 156.755354 
L 143.668019 153.929911 
L 145.020827 145.264675 
L 146.026676 142.322094 
L 146.050964 139.320386 
L 146.419928 136.309754 
L 147.353907 130.186598 
L 148.390764 126.801124 
L 148.418325 123.217446 
L 148.7524 119.442256 
L 149.68501 111.569839 
L 150.743638 107.612806 
L 150.766499 103.700769 
L 151.083869 99.787989 
L 152.016267 91.953874 
L 153.061067 87.990148 
L 153.087339 84.028281 
L 153.415302 80.134837 
L 154.347926 72.924715 
L 155.346045 69.396444 
L 155.370078 65.925441 
L 156.213629 59.747993 
L 156.679425 56.742195 
L 157.751954 53.890349 
L 157.776119 51.12143 
L 158.078768 48.787967 
L 159.0117 44.334493 
L 160.081945 42.177666 
L 160.106226 40.175164 
L 160.410779 38.250754 
L 161.343432 34.608321 
L 162.428428 33.335421 
L 162.4544 32.227631 
L 162.742307 31.35895 
L 163.675663 30.312889 
L 164.731136 30.028039 
L 164.754605 29.814216 
L 165.541358 29.470611 
L 166.007249 29.32893 
L 169.414674 29.30699 
L 173.003421 29.742446 
L 174.402932 29.93842 
L 189.327681 32.243249 
L 191.19345 32.432157 
L 205.651919 33.825542 
L 209.032376 34.055727 
L 209.057689 34.093657 
L 210.315839 34.206705 
L 213.670601 34.4328 
L 213.694765 34.465152 
L 217.312304 34.675257 
L 220.704063 34.864165 
L 223.840893 34.99655 
L 261.621735 35.957453 
L 272.81816 36.034057 
L 291.93959 36.054138 
L 299.977078 36.115496 
L 310.597098 36.102853 
L 345.111152 35.941091 
L 345.577022 39.063283 
L 346.580653 44.46353 
L 346.603975 50.061239 
L 347.44309 61.265952 
L 347.908908 66.879651 
L 348.895644 72.49335 
L 348.92311 78.107048 
L 349.774267 89.345602 
L 350.240831 94.975662 
L 351.299145 100.605723 
L 351.323192 106.236156 
L 351.639398 111.866589 
L 352.572337 123.129685 
L 353.585785 128.760862 
L 353.611735 134.391666 
L 354.438318 145.654391 
L 354.903902 151.285195 
L 356.010016 156.91005 
L 356.036582 162.538252 
L 356.303164 168.166453 
L 357.236769 179.416162 
L 358.282111 185.044364 
L 358.30506 190.676284 
L 358.634509 196.310064 
L 359.567792 207.563492 
L 360.558986 210.315305 
L 363.29845 210.464051 
L 372.625359 210.413849 
L 385.215315 210.213041 
L 389.881065 210.255062 
L 403.407035 210.364763 
L 403.407035 210.364763 
" clip-path="url(#pb4106f1b7c)" style="fill: none; stroke: #4c78a8; stroke-width: 1.4; stroke-linecap: square"/>
   </g>
   <g id="line2d_30">
    <path d="M 121.702232 219.534325 
L 121.702232 20.14375 
" clip-path="url(#pb4106f1b7c)" style="fill: none; stroke-dasharray: 1,1.65; stroke-dashoffset: 0; stroke: #54a24b"/>
   </g>
   <g id="line2d_31">
    <path d="M 167.873069 219.534325 
L 167.873069 20.14375 
" clip-path="url(#pb4106f1b7c)" style="fill: none; stroke-dasharray: 1,1.65; stroke-dashoffset: 0; stroke: #333333"/>
   </g>
   <g id="patch_3">
    <path d="M 46.391758 219.534325 
L 46.391758 20.14375 
" style="fill: none; stroke: #000000; stroke-width: 0.8; stroke-linejoin: miter; stroke-linecap: square"/>
   </g>
   <g id="patch_4">
    <path d="M 420.407762 219.534325 
L 420.407762 20.14375 
" style="fill: none; stroke: #000000; stroke-width: 0.8; stroke-linejoin: miter; stroke-linecap: square"/>
   </g>
   <g id="patch_5">
    <path d="M 46.391758 219.534325 
L 420.407762 219.534325 
" style="fill: none; stroke: #000000; stroke-width: 0.8; stroke-linejoin: miter; stroke-linecap: square"/>
   </g>
   <g id="patch_6">
    <path d="M 46.391758 20.14375 
L 420.407762 20.14375 
" style="fill: none; stroke: #000000; stroke-width: 0.8; stroke-linejoin: miter; stroke-linecap: square"/>
   </g>
   <g id="text_17">
    <text style="font-size: 10px; font-family: 'Times New Roman', 'DejaVu Serif', 'STIXGeneral', serif; text-anchor: middle" x="233.39976" y="14.14375" transform="rotate(-0 233.39976 14.14375)">Filtered ADC and Force</text>
   </g>
   <g id="legend_1">
    <g id="line2d_32">
     <path d="M 53.591758 30.14375 
L 61.591758 30.14375 
L 69.591758 30.14375 
" style="fill: none; stroke: #4c78a8; stroke-width: 1.4; stroke-linecap: square"/>
    </g>
    <g id="text_18">
     <text style="font-size: 8px; font-family: 'Times New Roman', 'DejaVu Serif', 'STIXGeneral', serif; text-anchor: start" x="75.991758" y="32.94375" transform="rotate(-0 75.991758 32.94375)">filtered ADC</text>
    </g>
    <g id="line2d_33">
     <path d="M 53.591758 41.470312 
L 61.591758 41.470312 
L 69.591758 41.470312 
" style="fill: none; stroke-dasharray: 4.44,1.92; stroke-dashoffset: 0; stroke: #e45756; stroke-width: 1.2"/>
    </g>
    <g id="text_19">
     <text style="font-size: 8px; font-family: 'Times New Roman', 'DejaVu Serif', 'STIXGeneral', serif; text-anchor: start" x="75.991758" y="44.270312" transform="rotate(-0 75.991758 44.270312)">force</text>
    </g>
   </g>
  </g>
  <g id="axes_2">
   <g id="matplotlib.axis_3">
    <g id="ytick_10">
     <g id="line2d_34">
      <defs>
       <path id="md3b60d764f" d="M 0 0 
L 3.5 0 
" style="stroke: #000000; stroke-width: 0.8"/>
      </defs>
      <g>
       <use xlink:href="#md3b60d764f" x="420.407762" y="210.892623" style="stroke: #000000; stroke-width: 0.8"/>
      </g>
     </g>
     <g id="text_20">
      <text style="font-size: 8px; font-family: 'Times New Roman', 'DejaVu Serif', 'STIXGeneral', serif; text-anchor: start" x="427.407762" y="213.666061" transform="rotate(-0 427.407762 213.666061)">0</text>
     </g>
    </g>
    <g id="ytick_11">
     <g id="line2d_35">
      <g>
       <use xlink:href="#md3b60d764f" x="420.407762" y="168.994488" style="stroke: #000000; stroke-width: 0.8"/>
      </g>
     </g>
     <g id="text_21">
      <text style="font-size: 8px; font-family: 'Times New Roman', 'DejaVu Serif', 'STIXGeneral', serif; text-anchor: start" x="427.407762" y="171.767926" transform="rotate(-0 427.407762 171.767926)">10</text>
     </g>
    </g>
    <g id="ytick_12">
     <g id="line2d_36">
      <g>
       <use xlink:href="#md3b60d764f" x="420.407762" y="127.096353" style="stroke: #000000; stroke-width: 0.8"/>
      </g>
     </g>
     <g id="text_22">
      <text style="font-size: 8px; font-family: 'Times New Roman', 'DejaVu Serif', 'STIXGeneral', serif; text-anchor: start" x="427.407762" y="129.869791" transform="rotate(-0 427.407762 129.869791)">20</text>
     </g>
    </g>
    <g id="ytick_13">
     <g id="line2d_37">
      <g>
       <use xlink:href="#md3b60d764f" x="420.407762" y="85.198218" style="stroke: #000000; stroke-width: 0.8"/>
      </g>
     </g>
     <g id="text_23">
      <text style="font-size: 8px; font-family: 'Times New Roman', 'DejaVu Serif', 'STIXGeneral', serif; text-anchor: start" x="427.407762" y="87.971655" transform="rotate(-0 427.407762 87.971655)">30</text>
     </g>
    </g>
    <g id="ytick_14">
     <g id="line2d_38">
      <g>
       <use xlink:href="#md3b60d764f" x="420.407762" y="43.300083" style="stroke: #000000; stroke-width: 0.8"/>
      </g>
     </g>
     <g id="text_24">
      <text style="font-size: 8px; font-family: 'Times New Roman', 'DejaVu Serif', 'STIXGeneral', serif; text-anchor: start" x="427.407762" y="46.07352" transform="rotate(-0 427.407762 46.07352)">40</text>
     </g>
    </g>
    <g id="text_25">
     <text style="font-size: 9px; font-family: 'Times New Roman', 'DejaVu Serif', 'STIXGeneral', serif; text-anchor: middle" x="445.657137" y="119.839037" transform="rotate(-90 445.657137 119.839037)">Force (N)</text>
    </g>
   </g>
   <g id="line2d_39">
    <path d="M 63.392485 210.471117 
L 85.45072 210.327879 
L 100.241932 210.020799 
L 111.037932 209.575994 
L 118.903957 209.02189 
L 123.568096 208.578698 
L 129.737041 207.796471 
L 134.367712 206.997052 
L 140.356915 205.708548 
L 144.087588 204.620153 
L 148.418325 203.123664 
L 151.083869 202.016888 
L 154.347926 200.413189 
L 158.078768 198.267384 
L 161.343432 196.091627 
L 164.754605 193.331737 
L 167.010156 191.213643 
L 169.738654 188.291325 
L 172.537149 184.974919 
L 173.003421 184.418637 
L 174.048609 183.492068 
L 176.73498 179.777075 
L 179.533146 175.460233 
L 182.332285 170.689165 
L 184.663828 166.398324 
L 188.397019 158.911022 
L 190.726922 153.920202 
L 196.32397 141.378411 
L 199.743978 132.861482 
L 202.853717 124.55554 
L 204.719507 119.33719 
L 207.517666 110.987101 
L 207.984304 110.221153 
L 210.315839 102.468027 
L 212.648216 94.220966 
L 216.378801 80.332243 
L 223.374204 52.429601 
L 227.633071 34.50143 
L 228.504849 30.719896 
L 228.970631 29.46554 
L 229.945522 29.229476 
L 231.303001 30.517784 
L 233.167927 31.795018 
L 235.033673 32.731922 
L 237.366607 33.627751 
L 240.165058 34.455146 
L 242.496937 35.006011 
L 244.362391 35.289922 
L 251.361974 36.440417 
L 257.957391 37.263659 
L 263.95409 37.844164 
L 278.96909 38.917682 
L 290.707779 39.554786 
L 304.633472 40.30774 
L 305.466541 44.165481 
L 306.883606 52.525586 
L 308.264795 61.885415 
L 310.597098 79.748542 
L 311.996997 91.539444 
L 312.462852 93.67512 
L 312.929424 96.408823 
L 314.795419 112.501382 
L 314.795419 112.501382 
" clip-path="url(#pb4106f1b7c)" style="fill: none; stroke-dasharray: 4.44,1.92; stroke-dashoffset: 0; stroke: #e45756; stroke-width: 1.2"/>
   </g>
   <g id="patch_7">
    <path d="M 46.391758 219.534325 
L 46.391758 20.14375 
" style="fill: none; stroke: #000000; stroke-width: 0.8; stroke-linejoin: miter; stroke-linecap: square"/>
   </g>
   <g id="patch_8">
    <path d="M 420.407762 219.534325 
L 420.407762 20.14375 
" style="fill: none; stroke: #000000; stroke-width: 0.8; stroke-linejoin: miter; stroke-linecap: square"/>
   </g>
   <g id="patch_9">
    <path d="M 46.391758 219.534325 
L 420.407762 219.534325 
" style="fill: none; stroke: #000000; stroke-width: 0.8; stroke-linejoin: miter; stroke-linecap: square"/>
   </g>
   <g id="patch_10">
    <path d="M 46.391758 20.14375 
L 420.407762 20.14375 
" style="fill: none; stroke: #000000; stroke-width: 0.8; stroke-linejoin: miter; stroke-linecap: square"/>
   </g>
  </g>
 </g>
 <defs>
  <clipPath id="pb4106f1b7c">
   <rect x="46.391758" y="20.14375" width="374.016004" height="199.390575"/>
  </clipPath>
 </defs>
</svg>
